<?xml version="1.0" standalone="no"?>
<!DOCTYPE svg PUBLIC "-//W3C//DTD SVG 20010904//EN"
 "http://www.w3.org/TR/2001/REC-SVG-20010904/DTD/svg10.dtd">
<svg version="1.0" xmlns="http://www.w3.org/2000/svg"
 width="512.000000pt" height="512.000000pt" viewBox="0 0 512.000000 512.000000"
 preserveAspectRatio="xMidYMid meet">
<metadata>
Created by potrace 1.11, written by Peter Selinger 2001-2013
</metadata>
<g transform="translate(0.000000,512.000000) scale(0.100000,-0.100000)"
fill="#000000" stroke="none">
<path d="M0 2560 l0 -2560 2560 0 2560 0 0 2560 0 2560 -2560 0 -2560 0 0
-2560z m2785 1613 c122 -42 200 -89 272 -167 110 -117 159 -258 151 -429 -8
-158 -78 -287 -196 -363 -34 -21 -61 -41 -61 -44 0 -3 25 -16 56 -30 77 -33
170 -126 211 -210 101 -206 77 -482 -59 -685 -65 -97 -143 -164 -254 -220
-128 -64 -185 -77 -360 -82 -125 -4 -167 -1 -250 16 -327 67 -515 288 -542
638 l-6 83 215 0 215 0 6 -74 c12 -133 66 -231 158 -281 50 -28 62 -30 155
-30 92 0 105 3 159 30 164 84 227 337 125 499 -53 83 -166 127 -362 141 l-88
7 0 153 0 152 108 5 c131 6 206 32 262 89 107 111 89 352 -34 441 -53 38 -107
51 -196 46 -164 -10 -253 -105 -269 -288 l-6 -65 -202 -3 -203 -2 0 49 c0 110
49 282 108 375 63 101 178 192 297 235 116 42 181 51 345 47 143 -2 162 -5
245 -33z m-1765 -1073 l0 -1100 -220 0 -220 0 0 880 0 880 -165 0 -166 0 3
142 3 142 320 67 c176 37 338 72 360 77 22 5 50 10 63 11 l22 1 0 -1100z
m3730 0 l0 -1100 -220 0 -220 0 0 880 0 880 -170 0 -170 0 0 140 c0 104 3 142
13 144 34 11 725 155 745 155 l22 1 0 -1100z m-756 -1365 c65 -33 123 -92 157
-163 20 -39 24 -63 24 -142 0 -89 -2 -99 -34 -158 -38 -70 -85 -115 -158 -152
-42 -22 -61 -25 -148 -25 -115 0 -158 16 -233 89 -182 173 -122 473 113 569
29 12 65 16 130 14 77 -2 98 -6 149 -32z m-3516 -116 c53 -101 77 -137 85
-130 7 5 41 68 77 140 l64 131 98 0 98 0 0 -330 0 -330 -70 0 -70 0 -1 228 0
227 -73 -145 -73 -145 -56 -3 -57 -3 -73 148 -72 148 -3 -228 -2 -227 -70 0
-70 0 0 330 0 330 98 0 97 0 73 -141z m1182 81 l0 -60 -172 -2 -173 -3 0 -70
0 -70 153 -3 152 -3 0 -64 0 -64 -152 -3 -153 -3 0 -65 0 -65 188 -3 187 -2 0
-60 0 -60 -260 0 -260 0 0 330 0 330 245 0 245 0 0 -60z m805 -5 l0 -60 -102
-3 -103 -3 0 -264 0 -265 -75 0 -75 0 -2 268 -3 267 -102 3 -103 3 0 60 0 59
283 -2 282 -3 0 -60z m365 -55 l0 -120 150 0 150 0 0 120 0 120 75 0 75 0 0
-330 0 -330 -75 0 -75 0 0 140 0 140 -150 0 -150 0 0 -140 0 -140 -75 0 -75 0
0 330 0 330 75 0 75 0 0 -120z m1968 105 c74 -22 131 -70 167 -140 28 -55 30
-65 30 -174 0 -100 -3 -123 -23 -166 -30 -65 -75 -112 -137 -141 -47 -22 -61
-24 -237 -24 l-188 0 0 330 0 330 168 0 c122 0 183 -4 220 -15z"/>
<path d="M3751 1608 c-25 -13 -58 -40 -75 -61 -58 -72 -45 -198 26 -264 54
-51 149 -67 214 -37 47 23 101 86 114 135 44 161 -132 304 -279 227z"/>
<path d="M4567 1633 c-4 -3 -7 -98 -7 -210 l0 -203 86 0 c151 0 204 53 204
203 0 125 -40 187 -132 207 -55 11 -141 13 -151 3z"/>
</g>
</svg>
